<?xml version="1.0" encoding="UTF-8" standalone="no"?>
<!DOCTYPE svg PUBLIC "-//W3C//DTD SVG 1.1//EN" "http://www.w3.org/Graphics/SVG/1.1/DTD/svg11.dtd">
<svg width="100%" height="100%" viewBox="0 0 5209 5209" version="1.1" xmlns="http://www.w3.org/2000/svg" xmlns:xlink="http://www.w3.org/1999/xlink" xml:space="preserve" xmlns:serif="http://www.serif.com/" style="fill-rule:evenodd;clip-rule:evenodd;stroke-linejoin:round;stroke-miterlimit:2;">
    <g transform="matrix(7.9983,0,0,7.9983,-2651.52,-2650.24)">
        <g transform="matrix(1,0,0,1,32.0998,31.9409)">
            <path d="M929.408,529.802C985.985,689.694 902.232,865.179 742.34,921.757C665.716,948.87 585.518,943.738 516.534,913.46C571.812,930.514 632.85,930.584 691.575,909.804C760.211,885.517 813.386,837.096 844.967,777.453C801.8,822.859 749.408,847.786 749.408,847.786C776.324,823.179 796.902,797.322 811.939,770.949C822.77,773.437 834.254,768.192 839.24,757.746C844.354,747.031 840.911,734.442 831.647,727.698C843.08,694.769 846.73,661.643 844.044,629.681C858.23,625.636 870.679,615.754 877.534,601.394C890.207,574.839 878.954,543.04 852.4,530.366C839.515,524.216 825.394,523.702 812.823,527.834C800.303,504.988 784.558,483.988 766.418,465.586C771.819,445.858 762.508,424.49 743.399,415.37C729.859,408.908 714.634,410.141 702.662,417.313C634.487,380.167 551.792,374.922 477.982,423.608C527.538,387.73 578.556,373.503 617.81,368.597C580.814,366.014 542.694,370.796 505.502,383.957C446.778,404.736 399.369,443.183 367.118,491.207C401.707,424.279 460.828,369.849 537.453,342.735C697.344,286.157 872.829,369.909 929.408,529.802Z" style="fill:rgb(79,79,79);"/>
        </g>
        <g transform="matrix(1,0,0,1,32.0998,31.9409)">
            <path d="M537.272,918.996C586.86,930.213 640.104,928.018 691.574,909.804C760.211,885.517 813.385,837.095 844.967,777.453C801.8,822.859 749.408,847.785 749.408,847.785C776.324,823.178 796.902,797.323 811.939,770.95C822.77,773.437 834.255,768.192 839.239,757.745C844.354,747.031 840.911,734.442 831.647,727.699C843.081,694.769 846.729,661.643 844.044,629.682C858.231,625.636 870.68,615.754 877.534,601.394C890.207,574.838 878.955,543.04 852.401,530.365C839.515,524.216 825.394,523.701 812.822,527.833C800.302,504.988 784.559,483.987 766.42,465.586C771.819,445.858 762.509,424.491 743.399,415.371C729.859,408.908 714.634,410.141 702.663,417.313C634.487,380.167 551.792,374.923 477.982,423.608C527.539,387.731 578.556,373.504 617.81,368.598C580.813,366.014 542.695,370.796 505.502,383.956C446.779,404.736 399.37,443.183 367.12,491.207C367.12,491.207 481.014,289.199 747.529,368.672C747.529,368.672 703,359.422 668.948,371.396C806.575,375.895 959.708,555.729 870.347,739.547C870.347,739.547 891.623,722.288 906.473,690.579C903.34,728.159 805.885,984.268 537.272,918.996ZM799.726,738.888C804.582,728.713 816.766,724.401 826.939,729.259C828.409,729.958 829.758,730.815 830.975,731.796C821.94,729.851 812.423,734.262 808.269,742.965C804.116,751.668 806.672,761.842 813.866,767.642C812.339,767.313 810.825,766.804 809.355,766.102C799.181,761.246 794.87,749.061 799.726,738.888ZM614.808,435.004C620.218,423.669 633.792,418.864 645.128,424.275C646.766,425.056 648.266,426.01 649.621,427.102C639.557,424.936 628.955,429.849 624.326,439.546C619.699,449.243 622.547,460.576 630.561,467.038C628.86,466.672 627.175,466.104 625.536,465.321C614.201,459.912 609.399,446.337 614.808,435.004ZM790.756,559.978C801.418,537.632 828.177,528.164 850.521,538.828C853.751,540.37 856.71,542.249 859.381,544.402C839.541,540.129 818.64,549.818 809.518,568.931C800.396,588.046 806.009,610.388 821.809,623.125C818.455,622.401 815.133,621.283 811.902,619.742C789.558,609.079 780.089,582.32 790.756,559.978ZM741.878,422.214C744.491,423.461 746.884,424.98 749.043,426.723C711.992,418.743 689.15,466.604 718.658,490.391C715.945,489.806 713.257,488.902 710.646,487.655C667.606,467.115 698.837,401.673 741.878,422.214Z" style="fill:rgb(159,170,204);"/>
        </g>
        <g transform="matrix(1,0,0,1,32.0998,31.9409)">
            <path d="M434.018,837.694C434.018,837.694 319.689,760.533 347.162,623.886C372.959,495.574 539.827,415.191 649.651,497.578C649.651,497.578 547.726,532.892 492.181,587.228C492.181,587.228 569.471,530.442 669.409,507.746C669.409,507.746 699.368,503.99 710.053,533.216C710.053,533.216 705.61,524.346 680.426,534.601C655.241,544.857 513.916,599.521 496.82,620.013C479.726,640.503 476.554,671.196 508.259,739.061C539.965,806.926 695.133,827.856 760.008,729.332C760.008,729.332 759.549,769.079 732.334,787.724C705.118,806.367 640.649,826.037 585.125,814.403C585.125,814.403 647.427,829.406 705.213,812.78C705.213,812.78 648.406,838.645 581.152,826.5C581.152,826.5 637.899,849.68 700.331,827.307C700.331,827.307 632.011,860.229 570.408,846.318C508.804,832.41 504.539,814.181 504.539,814.181C504.539,814.181 520.184,807.562 516.25,786.961C512.318,766.36 499.051,734.782 470.928,736.593C470.928,736.593 476.041,707.737 460.087,681.111C444.133,654.488 421.017,642.926 421.017,642.926C421.017,642.926 432.514,613.685 455.444,593.159C455.444,593.159 458.231,531.274 526.979,502.395C526.979,502.395 484.554,506.641 448.787,541.323C448.787,541.323 458.299,518.132 501.359,497.518C407.432,527.221 277.126,652.647 434.018,837.694Z" style="fill:rgb(211,213,217);"/>
        </g>
        <g transform="matrix(1,0,0,1,32.0998,31.9409)">
            <path d="M522.748,618.835C525.183,616.992 527.869,615.2 530.844,613.463C568.841,591.28 644.042,565.306 677.572,551.996C730.686,530.914 808.761,763.864 657.009,784.898C702.102,755.604 672.61,651.351 646.987,614.572L646.958,614.519C636.817,596.796 626.712,586.789 604.637,588.396C582.806,589.984 524.046,618.21 522.748,618.835Z" style="fill:white;"/>
        </g>
        <g transform="matrix(1,0,0,1,32.0998,31.9409)">
            <path d="M395.282,675.257C403.728,671.331 417.411,682.854 425.843,700.994C434.274,719.135 434.263,737.023 425.816,740.95C417.37,744.876 403.687,733.353 395.255,715.212C386.824,697.07 386.835,679.182 395.282,675.257Z" style="fill:rgb(211,213,217);"/>
        </g>
        <g transform="matrix(1,0,0,1,32.0998,31.9409)">
            <path d="M408.08,655.97C419.417,650.7 437.784,666.167 449.101,690.517C460.419,714.867 460.403,738.879 449.065,744.147C447.335,744.952 433.048,752.312 431.042,752.191C442.379,746.923 442.395,722.911 431.078,698.562C419.76,674.211 401.394,658.743 390.056,664.014C391.323,662.151 406.171,656.856 408.08,655.97Z" style="fill:white;"/>
        </g>
        <g transform="matrix(1,0,0,1,32.0998,31.9409)">
            <path d="M460.219,761.524C465.944,758.863 475.217,766.674 480.932,778.969C486.647,791.265 486.639,803.389 480.914,806.05C475.189,808.71 465.916,800.899 460.2,788.604C454.486,776.311 454.494,764.185 460.219,761.524Z" style="fill:rgb(211,213,217);"/>
        </g>
        <g transform="matrix(1,0,0,1,32.0998,31.9409)">
            <path d="M468.894,748.453C476.577,744.882 489.025,755.364 496.696,771.867C504.366,788.371 504.355,804.646 496.671,808.217C495.499,808.762 485.815,813.749 484.456,813.669C492.14,810.097 492.15,793.823 484.479,777.319C476.809,760.816 464.362,750.333 456.677,753.904C457.536,752.643 467.599,749.054 468.894,748.453Z" style="fill:white;"/>
        </g>
        <g transform="matrix(1,0,0,1,32.0998,31.9409)">
            <path d="M396.605,322.353L401.7,347.823L427.171,352.918L401.7,358.012L396.605,383.484L391.511,358.012L366.039,352.918L391.511,347.823L396.605,322.353Z" style="fill:rgb(253,241,171);"/>
        </g>
        <g transform="matrix(1,0,0,1,32.0998,31.9409)">
            <path d="M926.955,390.757L931.531,413.642L954.417,418.218L931.531,422.796L926.955,445.681L922.377,422.796L899.493,418.218L922.377,413.642L926.955,390.757Z" style="fill:rgb(253,241,171);"/>
        </g>
        <g transform="matrix(1,0,0,1,32.0998,31.9409)">
            <path d="M464.805,865.75L469.381,888.635L492.267,893.212L469.381,897.788L464.805,920.673L460.228,897.788L437.342,893.212L460.228,888.635L464.805,865.75Z" style="fill:rgb(253,241,171);"/>
        </g>
        <g transform="matrix(1,0,0,1,32.0998,31.9409)">
            <path d="M315.25,578.368L318.528,594.758L334.918,598.036L318.528,601.314L315.25,617.703L311.972,601.314L295.583,598.036L311.972,594.758L315.25,578.368Z" style="fill:rgb(253,241,171);"/>
        </g>
        <g transform="matrix(1,0,0,1,32.0998,31.9409)">
            <path d="M795.762,310.576L799.041,326.966L815.43,330.243L799.041,333.521L795.762,349.911L792.485,333.522L776.094,330.243L792.485,326.966L795.762,310.576Z" style="fill:rgb(253,241,171);"/>
        </g>
        <g transform="matrix(1,0,0,1,32.0998,31.9409)">
            <path d="M881.023,874.009L884.301,890.397L900.691,893.676L884.301,896.953L881.023,913.344L877.745,896.953L861.355,893.676L877.745,890.397L881.023,874.009Z" style="fill:rgb(253,241,171);"/>
        </g>
    </g>
</svg>
